<svg xmlns="http://www.w3.org/2000/svg" version="1.1" xmlns:xlink="http://www.w3.org/1999/xlink" xmlns:svgjs="http://svgjs.com/svgjs" width="1366" height="32" preserveAspectRatio="none" viewBox="0 0 1366 32"><g mask="url(&quot;#SvgjsMask1032&quot;)" fill="none"><rect width="1366" height="32" x="0" y="0" fill="#0e2a47"></rect><path d="M0,396.524C72.491,378.571,97.394,288.658,154.846,240.945C202.77,201.145,279.604,196.103,308.062,140.687C336.672,84.976,301.585,19.376,300.788,-43.247C299.839,-117.837,343.736,-200.045,302.932,-262.492C262.337,-324.62,173.147,-326.266,102.019,-347.446C30.605,-368.711,-41.116,-404.243,-113.484,-386.491C-186.953,-368.469,-254.739,-318.212,-289.997,-251.284C-323.132,-188.386,-296.456,-113.453,-294.766,-42.381C-293.381,15.867,-293.331,71.378,-280.972,128.316C-265.475,199.71,-266.312,281.716,-213.467,332.161C-158.597,384.539,-73.631,414.76,0,396.524" fill="#0a1d32"></path><path d="M1366 381.807C1431.555 382.739 1489.749 345.823 1545.09 310.67 1600.688 275.35400000000004 1646.954 231.079 1686.366 178.306 1734.717 113.563 1818.341 48.277 1799.785-30.369 1780.788-110.88499999999999 1657.218-110.87899999999999 1603.325-173.643 1549.027-236.878 1563.602-351.476 1490.184-390.931 1417.691-429.889 1327.906-389.657 1249.84-363.606 1174.068-338.32 1093.5819999999999-309.121 1048.147-243.421 1004.137-179.781 1020.809-95.782 1011.5070000000001-18.968000000000004 1002.451 55.819 957.9110000000001 135.78300000000002 994.2339999999999 201.78 1030.6100000000001 267.872 1122.255 272.74199999999996 1190.154 305.622 1248.837 334.039 1300.806 380.88 1366 381.807" fill="#12375c"></path></g><defs><mask id="SvgjsMask1032"><rect width="1366" height="32" fill="#ffffff"></rect></mask></defs></svg>